<mxfile host="app.diagrams.net" modified="2024-03-06T21:55:17.454Z" agent="Mozilla/5.0 (Windows NT 10.0; Win64; x64) AppleWebKit/537.36 (KHTML, like Gecko) Chrome/122.0.0.0 Safari/537.36" etag="uM50xuE900mOFLGMnZBp" version="23.1.2" type="github">
  <diagram name="Страница — 1" id="eyLgD79hs214g4bm-AtA">
    <mxGraphModel dx="6904" dy="2650" grid="1" gridSize="10" guides="1" tooltips="1" connect="1" arrows="1" fold="1" page="1" pageScale="1" pageWidth="827" pageHeight="1169" math="0" shadow="0">
      <root>
        <mxCell id="0" />
        <mxCell id="1" parent="0" />
        <mxCell id="ju0ssGiBvqRHK1ZhxGey-5" value="&#xa;Зарегистрироваться в системе, видеть свой профиль, указывать инфо&#xa;&#xa;" style="rounded=1;whiteSpace=wrap;html=1;fillColor=#fff2cc;strokeColor=#d6b656;" vertex="1" parent="1">
          <mxGeometry x="-420" y="295" width="130" height="80" as="geometry" />
        </mxCell>
        <mxCell id="ju0ssGiBvqRHK1ZhxGey-6" value="&lt;span style=&quot;border-color: var(--border-color);&quot;&gt;&lt;font size=&quot;1&quot; style=&quot;&quot; color=&quot;#ff0000&quot;&gt;&lt;b style=&quot;font-size: 16px;&quot;&gt;Крупные шаги&lt;/b&gt;&lt;/font&gt;&lt;/span&gt;" style="text;html=1;strokeColor=none;fillColor=none;align=center;verticalAlign=middle;whiteSpace=wrap;rounded=0;" vertex="1" parent="1">
          <mxGeometry x="-827" y="320" width="60" height="30" as="geometry" />
        </mxCell>
        <mxCell id="ju0ssGiBvqRHK1ZhxGey-7" value="&lt;br&gt;Зарегистрироваться через телефон&lt;br&gt;" style="rounded=1;whiteSpace=wrap;html=1;fillColor=#f8cecc;strokeColor=#b85450;" vertex="1" parent="1">
          <mxGeometry x="-730" y="400" width="130" height="70" as="geometry" />
        </mxCell>
        <mxCell id="ju0ssGiBvqRHK1ZhxGey-8" value="&lt;br&gt;Установить пароль" style="rounded=1;whiteSpace=wrap;html=1;fillColor=#f8cecc;strokeColor=#b85450;" vertex="1" parent="1">
          <mxGeometry x="-570" y="400" width="130" height="70" as="geometry" />
        </mxCell>
        <mxCell id="ju0ssGiBvqRHK1ZhxGey-9" value="&lt;br&gt;Восстановить&amp;nbsp; доступ" style="rounded=1;whiteSpace=wrap;html=1;fillColor=#f8cecc;strokeColor=#b85450;" vertex="1" parent="1">
          <mxGeometry x="-413.5" y="400" width="130" height="70" as="geometry" />
        </mxCell>
        <mxCell id="ju0ssGiBvqRHK1ZhxGey-10" value="&lt;br&gt;Изменить профиль" style="rounded=1;whiteSpace=wrap;html=1;fillColor=#f8cecc;strokeColor=#b85450;" vertex="1" parent="1">
          <mxGeometry x="-260" y="400" width="130" height="70" as="geometry" />
        </mxCell>
        <mxCell id="ju0ssGiBvqRHK1ZhxGey-11" value="Купить Премиум подписки" style="rounded=1;whiteSpace=wrap;html=1;fillColor=#f8cecc;strokeColor=#b85450;" vertex="1" parent="1">
          <mxGeometry x="-110" y="400" width="130" height="70" as="geometry" />
        </mxCell>
        <mxCell id="ju0ssGiBvqRHK1ZhxGey-12" value="&lt;b style=&quot;border-color: var(--border-color);&quot;&gt;&lt;font style=&quot;font-size: 16px;&quot; color=&quot;#ff0000&quot;&gt;Шаги помельче&lt;/font&gt;&lt;/b&gt;" style="text;html=1;strokeColor=none;fillColor=none;align=center;verticalAlign=middle;whiteSpace=wrap;rounded=0;" vertex="1" parent="1">
          <mxGeometry x="-830" y="430" width="60" height="20" as="geometry" />
        </mxCell>
        <mxCell id="ju0ssGiBvqRHK1ZhxGey-14" value="" style="whiteSpace=wrap;html=1;aspect=fixed;fillColor=#dae8fc;strokeColor=#6c8ebf;" vertex="1" parent="1">
          <mxGeometry x="-720" y="520" width="130" height="130" as="geometry" />
        </mxCell>
        <mxCell id="ju0ssGiBvqRHK1ZhxGey-15" value="&#xa;Я как пол-ль хочу иметь возможность установить пароль при входе&#xa;&#xa;" style="whiteSpace=wrap;html=1;aspect=fixed;fillColor=#dae8fc;strokeColor=#6c8ebf;" vertex="1" parent="1">
          <mxGeometry x="-560" y="520" width="130" height="130" as="geometry" />
        </mxCell>
        <mxCell id="ju0ssGiBvqRHK1ZhxGey-16" value="&#xa;Я как пол-ль хочу иметь возможность восстановления доступа с помощью номера телефона,&#xa;&#xa;" style="whiteSpace=wrap;html=1;aspect=fixed;fillColor=#dae8fc;strokeColor=#6c8ebf;" vertex="1" parent="1">
          <mxGeometry x="-400" y="520" width="130" height="130" as="geometry" />
        </mxCell>
        <mxCell id="ju0ssGiBvqRHK1ZhxGey-17" value="Я как пол-ль хочу иметь возможность изменять следующие данные о себе: имя, фамилию, описание, номер телефона, имя,&amp;nbsp; фото профиля" style="whiteSpace=wrap;html=1;aspect=fixed;fillColor=#dae8fc;strokeColor=#6c8ebf;" vertex="1" parent="1">
          <mxGeometry x="-240" y="520" width="130" height="130" as="geometry" />
        </mxCell>
        <mxCell id="ju0ssGiBvqRHK1ZhxGey-18" value="&lt;b&gt;User story&amp;nbsp;&lt;br&gt;&lt;font style=&quot;font-size: 16px;&quot; color=&quot;#cc0000&quot;&gt;Release 1 MVP&lt;/font&gt;&lt;/b&gt;" style="text;html=1;strokeColor=none;fillColor=none;align=center;verticalAlign=middle;whiteSpace=wrap;rounded=0;" vertex="1" parent="1">
          <mxGeometry x="-830" y="570" width="60" height="30" as="geometry" />
        </mxCell>
        <mxCell id="ju0ssGiBvqRHK1ZhxGey-19" value="Я как пол-ль хочу зарегистрироваться через номер телефона с подтверждением кода по смс или по звонку" style="text;html=1;strokeColor=none;fillColor=none;align=center;verticalAlign=middle;whiteSpace=wrap;rounded=0;" vertex="1" parent="1">
          <mxGeometry x="-687.5" y="570" width="65" height="30" as="geometry" />
        </mxCell>
        <mxCell id="ju0ssGiBvqRHK1ZhxGey-20" value="&lt;b style=&quot;font-size: 16px;&quot;&gt;&lt;font style=&quot;font-size: 16px;&quot; color=&quot;#cc0000&quot;&gt;&amp;nbsp;&lt;br&gt;Release 2&lt;/font&gt;&lt;/b&gt;" style="text;html=1;strokeColor=none;fillColor=none;align=center;verticalAlign=middle;whiteSpace=wrap;rounded=0;" vertex="1" parent="1">
          <mxGeometry x="-830" y="750" width="60" height="30" as="geometry" />
        </mxCell>
        <mxCell id="ju0ssGiBvqRHK1ZhxGey-21" value="&#xa;Я как пол-ль хочу&amp;nbsp; иметь возможность подключать другие устройства&amp;nbsp; по&amp;nbsp; Qr коду&#xa;&#xa;" style="whiteSpace=wrap;html=1;aspect=fixed;fillColor=#dae8fc;strokeColor=#6c8ebf;" vertex="1" parent="1">
          <mxGeometry x="-720" y="710" width="130" height="130" as="geometry" />
        </mxCell>
        <mxCell id="ju0ssGiBvqRHK1ZhxGey-22" value="&lt;b style=&quot;font-size: 16px;&quot;&gt;&lt;font style=&quot;font-size: 16px;&quot; color=&quot;#cc0000&quot;&gt;&amp;nbsp;&lt;br&gt;Release 3&lt;/font&gt;&lt;/b&gt;" style="text;html=1;strokeColor=none;fillColor=none;align=center;verticalAlign=middle;whiteSpace=wrap;rounded=0;" vertex="1" parent="1">
          <mxGeometry x="-830" y="910" width="60" height="30" as="geometry" />
        </mxCell>
        <mxCell id="ju0ssGiBvqRHK1ZhxGey-23" value="&lt;b style=&quot;font-size: 16px;&quot;&gt;&lt;font style=&quot;font-size: 16px;&quot; color=&quot;#cc0000&quot;&gt;&amp;nbsp;&lt;br&gt;Release 4&lt;/font&gt;&lt;/b&gt;" style="text;html=1;strokeColor=none;fillColor=none;align=center;verticalAlign=middle;whiteSpace=wrap;rounded=0;" vertex="1" parent="1">
          <mxGeometry x="-830" y="1020" width="60" height="30" as="geometry" />
        </mxCell>
        <mxCell id="ju0ssGiBvqRHK1ZhxGey-24" value="&lt;br&gt;Я как пользователь хочу приобрести&amp;nbsp; премиум подписку в любой момент" style="whiteSpace=wrap;html=1;aspect=fixed;fillColor=#dae8fc;strokeColor=#6c8ebf;" vertex="1" parent="1">
          <mxGeometry x="-110" y="1000" width="130" height="130" as="geometry" />
        </mxCell>
        <mxCell id="ju0ssGiBvqRHK1ZhxGey-25" value="&lt;br&gt;Я как пользователь хочу приобрести&amp;nbsp; премиум подписку в любой момент" style="whiteSpace=wrap;html=1;aspect=fixed;fillColor=#dae8fc;strokeColor=#6c8ebf;" vertex="1" parent="1">
          <mxGeometry x="40" y="1000" width="130" height="130" as="geometry" />
        </mxCell>
        <mxCell id="ju0ssGiBvqRHK1ZhxGey-26" value="&lt;br&gt;Взаимодействовать с другими пользователями" style="rounded=1;whiteSpace=wrap;html=1;fillColor=#fff2cc;strokeColor=#d6b656;" vertex="1" parent="1">
          <mxGeometry x="414" y="295" width="130" height="80" as="geometry" />
        </mxCell>
        <mxCell id="ju0ssGiBvqRHK1ZhxGey-27" value="Добавить друга" style="rounded=1;whiteSpace=wrap;html=1;fillColor=#f8cecc;strokeColor=#b85450;" vertex="1" parent="1">
          <mxGeometry x="190" y="400" width="130" height="70" as="geometry" />
        </mxCell>
        <mxCell id="ju0ssGiBvqRHK1ZhxGey-28" value="Удалить друга" style="rounded=1;whiteSpace=wrap;html=1;fillColor=#f8cecc;strokeColor=#b85450;" vertex="1" parent="1">
          <mxGeometry x="360" y="400" width="130" height="70" as="geometry" />
        </mxCell>
        <mxCell id="ju0ssGiBvqRHK1ZhxGey-29" value="Общаться с др пол-лями" style="rounded=1;whiteSpace=wrap;html=1;fillColor=#f8cecc;strokeColor=#b85450;" vertex="1" parent="1">
          <mxGeometry x="520" y="400" width="130" height="70" as="geometry" />
        </mxCell>
        <mxCell id="ju0ssGiBvqRHK1ZhxGey-30" value="Отправлять файлы" style="rounded=1;whiteSpace=wrap;html=1;fillColor=#f8cecc;strokeColor=#b85450;" vertex="1" parent="1">
          <mxGeometry x="680" y="400" width="130" height="70" as="geometry" />
        </mxCell>
        <mxCell id="ju0ssGiBvqRHK1ZhxGey-31" value="Я как пол-ль хочу добавлять др. пол-ля по номеру телефона" style="whiteSpace=wrap;html=1;aspect=fixed;fillColor=#dae8fc;strokeColor=#6c8ebf;" vertex="1" parent="1">
          <mxGeometry x="190" y="520" width="130" height="130" as="geometry" />
        </mxCell>
        <mxCell id="ju0ssGiBvqRHK1ZhxGey-32" value="Я как пользователь хочу удалять&amp;nbsp; др. пол-лей" style="whiteSpace=wrap;html=1;aspect=fixed;fillColor=#dae8fc;strokeColor=#6c8ebf;" vertex="1" parent="1">
          <mxGeometry x="340" y="520" width="130" height="130" as="geometry" />
        </mxCell>
        <mxCell id="ju0ssGiBvqRHK1ZhxGey-33" value="Я как пол-ль хочу отправлять сообщение в текстовом формате" style="whiteSpace=wrap;html=1;aspect=fixed;fillColor=#dae8fc;strokeColor=#6c8ebf;" vertex="1" parent="1">
          <mxGeometry x="490" y="520" width="130" height="130" as="geometry" />
        </mxCell>
        <mxCell id="ju0ssGiBvqRHK1ZhxGey-34" value="Я как поль-тель хочу отправлять голосовые сообщения." style="whiteSpace=wrap;html=1;aspect=fixed;fillColor=#dae8fc;strokeColor=#6c8ebf;" vertex="1" parent="1">
          <mxGeometry x="640" y="520" width="130" height="130" as="geometry" />
        </mxCell>
        <mxCell id="ju0ssGiBvqRHK1ZhxGey-35" value="Я как пол-тель хочу отправлять файлы в формате Img, jpag, pdf, csv, word" style="whiteSpace=wrap;html=1;aspect=fixed;fillColor=#dae8fc;strokeColor=#6c8ebf;" vertex="1" parent="1">
          <mxGeometry x="790" y="520" width="130" height="130" as="geometry" />
        </mxCell>
        <mxCell id="ju0ssGiBvqRHK1ZhxGey-36" value="Я как пользователь хочу добавлять др. пол-лей по тегу (никнейму) пользователя" style="whiteSpace=wrap;html=1;aspect=fixed;fillColor=#dae8fc;strokeColor=#6c8ebf;" vertex="1" parent="1">
          <mxGeometry x="190" y="680" width="130" height="130" as="geometry" />
        </mxCell>
        <mxCell id="ju0ssGiBvqRHK1ZhxGey-37" value="Я как пользователь хочу отправлять GIF" style="whiteSpace=wrap;html=1;aspect=fixed;fillColor=#dae8fc;strokeColor=#6c8ebf;" vertex="1" parent="1">
          <mxGeometry x="480" y="680" width="130" height="130" as="geometry" />
        </mxCell>
        <mxCell id="ju0ssGiBvqRHK1ZhxGey-38" value="Я как пользователь хочу отправлять геопозицию" style="whiteSpace=wrap;html=1;aspect=fixed;fillColor=#dae8fc;strokeColor=#6c8ebf;" vertex="1" parent="1">
          <mxGeometry x="630" y="680" width="130" height="130" as="geometry" />
        </mxCell>
        <mxCell id="ju0ssGiBvqRHK1ZhxGey-39" value="Я как пользователь хочу отправлять стикеры" style="whiteSpace=wrap;html=1;aspect=fixed;fillColor=#dae8fc;strokeColor=#6c8ebf;" vertex="1" parent="1">
          <mxGeometry x="790" y="680" width="130" height="130" as="geometry" />
        </mxCell>
        <mxCell id="ju0ssGiBvqRHK1ZhxGey-40" value="Я как пол-тель хочу звонить по аудио-звонку" style="whiteSpace=wrap;html=1;aspect=fixed;fillColor=#dae8fc;strokeColor=#6c8ebf;" vertex="1" parent="1">
          <mxGeometry x="480" y="840" width="130" height="130" as="geometry" />
        </mxCell>
        <mxCell id="ju0ssGiBvqRHK1ZhxGey-41" value="Я как пол-тель хочу звонить по видео-звонку" style="whiteSpace=wrap;html=1;aspect=fixed;fillColor=#dae8fc;strokeColor=#6c8ebf;" vertex="1" parent="1">
          <mxGeometry x="640" y="840" width="130" height="130" as="geometry" />
        </mxCell>
        <mxCell id="ju0ssGiBvqRHK1ZhxGey-42" value="Я как пол-тель хочу   удалять свои отправленные сообщения" style="whiteSpace=wrap;html=1;aspect=fixed;fillColor=#dae8fc;strokeColor=#6c8ebf;" vertex="1" parent="1">
          <mxGeometry x="790" y="840" width="130" height="130" as="geometry" />
        </mxCell>
        <mxCell id="ju0ssGiBvqRHK1ZhxGey-43" value="Я как пол-тель хочу общаться ч/з видео сообщению" style="whiteSpace=wrap;html=1;aspect=fixed;fillColor=#dae8fc;strokeColor=#6c8ebf;" vertex="1" parent="1">
          <mxGeometry x="470" y="1000" width="130" height="130" as="geometry" />
        </mxCell>
        <mxCell id="ju0ssGiBvqRHK1ZhxGey-44" value="&lt;br&gt;Участие в группах / каналах" style="rounded=1;whiteSpace=wrap;html=1;fillColor=#fff2cc;strokeColor=#d6b656;" vertex="1" parent="1">
          <mxGeometry x="1280" y="310" width="130" height="80" as="geometry" />
        </mxCell>
        <mxCell id="ju0ssGiBvqRHK1ZhxGey-45" value="Подписываться на группы/каналы" style="rounded=1;whiteSpace=wrap;html=1;fillColor=#f8cecc;strokeColor=#b85450;" vertex="1" parent="1">
          <mxGeometry x="1020" y="400" width="130" height="70" as="geometry" />
        </mxCell>
        <mxCell id="ju0ssGiBvqRHK1ZhxGey-46" value="Отписаться от групп/каналов" style="rounded=1;whiteSpace=wrap;html=1;fillColor=#f8cecc;strokeColor=#b85450;" vertex="1" parent="1">
          <mxGeometry x="1176" y="400" width="130" height="70" as="geometry" />
        </mxCell>
        <mxCell id="ju0ssGiBvqRHK1ZhxGey-47" value="Отключать/включать уведомление" style="rounded=1;whiteSpace=wrap;html=1;fillColor=#f8cecc;strokeColor=#b85450;" vertex="1" parent="1">
          <mxGeometry x="1330" y="400" width="130" height="70" as="geometry" />
        </mxCell>
        <mxCell id="ju0ssGiBvqRHK1ZhxGey-48" value="Оставлять комментарии" style="rounded=1;whiteSpace=wrap;html=1;fillColor=#f8cecc;strokeColor=#b85450;" vertex="1" parent="1">
          <mxGeometry x="1470" y="400" width="130" height="70" as="geometry" />
        </mxCell>
        <mxCell id="ju0ssGiBvqRHK1ZhxGey-49" value="Оставлять реакции" style="rounded=1;whiteSpace=wrap;html=1;fillColor=#f8cecc;strokeColor=#b85450;" vertex="1" parent="1">
          <mxGeometry x="1620" y="400" width="130" height="70" as="geometry" />
        </mxCell>
        <mxCell id="ju0ssGiBvqRHK1ZhxGey-50" value="Я как пользователь хочу подписаться на группу по поиску тега&amp;nbsp;чтобы  получать уведомления и информацию от них." style="whiteSpace=wrap;html=1;aspect=fixed;fillColor=#dae8fc;strokeColor=#6c8ebf;" vertex="1" parent="1">
          <mxGeometry x="1030" y="520" width="130" height="130" as="geometry" />
        </mxCell>
        <mxCell id="ju0ssGiBvqRHK1ZhxGey-51" value="Я как пользователь хочу иметь возможность отписаться от&amp;nbsp; группы в любой момент." style="whiteSpace=wrap;html=1;aspect=fixed;fillColor=#dae8fc;strokeColor=#6c8ebf;" vertex="1" parent="1">
          <mxGeometry x="1190" y="520" width="130" height="130" as="geometry" />
        </mxCell>
        <mxCell id="ju0ssGiBvqRHK1ZhxGey-52" value="Я как пользователь хочу иметь возможность включать уведомления в группах" style="whiteSpace=wrap;html=1;aspect=fixed;fillColor=#dae8fc;strokeColor=#6c8ebf;" vertex="1" parent="1">
          <mxGeometry x="1350" y="519" width="130" height="130" as="geometry" />
        </mxCell>
        <mxCell id="ju0ssGiBvqRHK1ZhxGey-53" value="Я как пользователь хочу иметь возможность выключать уведомления в группах" style="whiteSpace=wrap;html=1;aspect=fixed;fillColor=#dae8fc;strokeColor=#6c8ebf;" vertex="1" parent="1">
          <mxGeometry x="1530" y="520" width="130" height="130" as="geometry" />
        </mxCell>
        <mxCell id="ju0ssGiBvqRHK1ZhxGey-54" value="Я как пользователь хочу подписаться на канал по поиску&amp;nbsp;" style="whiteSpace=wrap;html=1;aspect=fixed;fillColor=#dae8fc;strokeColor=#6c8ebf;" vertex="1" parent="1">
          <mxGeometry x="1111" y="680" width="130" height="130" as="geometry" />
        </mxCell>
        <mxCell id="ju0ssGiBvqRHK1ZhxGey-55" value="Я как пользователь хочу иметь возможность отписаться от&amp;nbsp; канала в любой момент." style="whiteSpace=wrap;html=1;aspect=fixed;fillColor=#dae8fc;strokeColor=#6c8ebf;" vertex="1" parent="1">
          <mxGeometry x="1270" y="680" width="130" height="130" as="geometry" />
        </mxCell>
        <mxCell id="ju0ssGiBvqRHK1ZhxGey-56" value="Я как пользователь хочу иметь возможность включать уведомления в каналах" style="whiteSpace=wrap;html=1;aspect=fixed;fillColor=#dae8fc;strokeColor=#6c8ebf;" vertex="1" parent="1">
          <mxGeometry x="1420" y="680" width="130" height="130" as="geometry" />
        </mxCell>
        <mxCell id="ju0ssGiBvqRHK1ZhxGey-57" value="Я как пользователь хочу иметь возможность выключать уведомления в каналах" style="whiteSpace=wrap;html=1;aspect=fixed;fillColor=#dae8fc;strokeColor=#6c8ebf;" vertex="1" parent="1">
          <mxGeometry x="1570" y="680" width="130" height="130" as="geometry" />
        </mxCell>
        <mxCell id="ju0ssGiBvqRHK1ZhxGey-58" value="Я как пользователь хочу подписаться на  группу/канал по ссылке-приглашению" style="whiteSpace=wrap;html=1;aspect=fixed;fillColor=#dae8fc;strokeColor=#6c8ebf;" vertex="1" parent="1">
          <mxGeometry x="1111" y="840" width="130" height="130" as="geometry" />
        </mxCell>
        <mxCell id="ju0ssGiBvqRHK1ZhxGey-59" value="Я как пользователь хочу иметь&amp;nbsp;возможность выделять/копировать фрагмент англоязычного текста с изображения, чтобы&amp;nbsp; не перепечатывать его вручную" style="whiteSpace=wrap;html=1;aspect=fixed;fillColor=#dae8fc;strokeColor=#6c8ebf;" vertex="1" parent="1">
          <mxGeometry x="1241" y="1000" width="130" height="130" as="geometry" />
        </mxCell>
        <mxCell id="ju0ssGiBvqRHK1ZhxGey-60" value="Работа над созданием канала" style="rounded=1;whiteSpace=wrap;html=1;fillColor=#fff2cc;strokeColor=#d6b656;" vertex="1" parent="1">
          <mxGeometry x="2170" y="310" width="130" height="80" as="geometry" />
        </mxCell>
        <mxCell id="ju0ssGiBvqRHK1ZhxGey-61" value="Создать группу/канала" style="rounded=1;whiteSpace=wrap;html=1;fillColor=#f8cecc;strokeColor=#b85450;" vertex="1" parent="1">
          <mxGeometry x="1920" y="405" width="130" height="70" as="geometry" />
        </mxCell>
        <mxCell id="ju0ssGiBvqRHK1ZhxGey-62" value="Управлять группой или каналом" style="rounded=1;whiteSpace=wrap;html=1;fillColor=#f8cecc;strokeColor=#b85450;" vertex="1" parent="1">
          <mxGeometry x="2351" y="405" width="130" height="70" as="geometry" />
        </mxCell>
        <mxCell id="ju0ssGiBvqRHK1ZhxGey-63" value="Изменять возможности группы/ канала" style="rounded=1;whiteSpace=wrap;html=1;fillColor=#f8cecc;strokeColor=#b85450;" vertex="1" parent="1">
          <mxGeometry x="2140" y="405" width="130" height="70" as="geometry" />
        </mxCell>
        <mxCell id="ju0ssGiBvqRHK1ZhxGey-64" value="Я как пользователь хочу иметь возможность создавать собственные группы, чтобы общаться с другими пользователями по интересам." style="whiteSpace=wrap;html=1;aspect=fixed;fillColor=#dae8fc;strokeColor=#6c8ebf;" vertex="1" parent="1">
          <mxGeometry x="1920" y="519" width="130" height="130" as="geometry" />
        </mxCell>
        <mxCell id="ju0ssGiBvqRHK1ZhxGey-65" value="&lt;strong&gt;Как админ группы  &lt;/strong&gt;, я хочу иметь возможность изменять права участников группы, чтобы контролировать их действия." style="whiteSpace=wrap;html=1;aspect=fixed;fillColor=#dae8fc;strokeColor=#6c8ebf;" vertex="1" parent="1">
          <mxGeometry x="2130" y="519" width="130" height="130" as="geometry" />
        </mxCell>
        <mxCell id="ju0ssGiBvqRHK1ZhxGey-66" value="&lt;strong&gt;Как администратор группы &lt;/strong&gt;, я хочу иметь возможность удалять и покидать группу" style="whiteSpace=wrap;html=1;aspect=fixed;fillColor=#dae8fc;strokeColor=#6c8ebf;" vertex="1" parent="1">
          <mxGeometry x="2340" y="520" width="130" height="130" as="geometry" />
        </mxCell>
        <mxCell id="ju0ssGiBvqRHK1ZhxGey-67" value="Я как пользователь хочу иметь возможность создавать каналы, чтобы общаться с другими пользователями по интересам." style="whiteSpace=wrap;html=1;aspect=fixed;fillColor=#dae8fc;strokeColor=#6c8ebf;" vertex="1" parent="1">
          <mxGeometry x="1920" y="680" width="130" height="130" as="geometry" />
        </mxCell>
        <mxCell id="ju0ssGiBvqRHK1ZhxGey-68" value="&lt;strong&gt;Как админ канала&amp;nbsp;&lt;/strong&gt;, я хочу иметь возможность изменять права участников группы, чтобы контролировать их действия." style="whiteSpace=wrap;html=1;aspect=fixed;fillColor=#dae8fc;strokeColor=#6c8ebf;" vertex="1" parent="1">
          <mxGeometry x="2100" y="680" width="130" height="130" as="geometry" />
        </mxCell>
        <mxCell id="ju0ssGiBvqRHK1ZhxGey-69" value="&lt;strong&gt;Как администратор канала&amp;nbsp;&lt;/strong&gt;, я хочу иметь возможность удалять и покидать канала" style="whiteSpace=wrap;html=1;aspect=fixed;fillColor=#dae8fc;strokeColor=#6c8ebf;" vertex="1" parent="1">
          <mxGeometry x="2280" y="680" width="130" height="130" as="geometry" />
        </mxCell>
        <mxCell id="ju0ssGiBvqRHK1ZhxGey-70" value="Я как &lt;strong&gt;админ канала&lt;/strong&gt; могу видеть среднюю статистику канала, голоса участников" style="whiteSpace=wrap;html=1;aspect=fixed;fillColor=#dae8fc;strokeColor=#6c8ebf;" vertex="1" parent="1">
          <mxGeometry x="2460" y="680" width="130" height="130" as="geometry" />
        </mxCell>
        <mxCell id="ju0ssGiBvqRHK1ZhxGey-71" value="Я как &lt;strong&gt;админ канала&lt;/strong&gt; могу иметь возможность разрешать публиковать на своем канале рекламу" style="whiteSpace=wrap;html=1;aspect=fixed;fillColor=#dae8fc;strokeColor=#6c8ebf;" vertex="1" parent="1">
          <mxGeometry x="2300" y="850" width="130" height="130" as="geometry" />
        </mxCell>
      </root>
    </mxGraphModel>
  </diagram>
</mxfile>
